<svg viewBox="0 0 24 24" height="24" width="24" xmlns="http://www.w3.org/2000/svg" xml:space="preserve" style="fill-rule:evenodd;clip-rule:evenodd;stroke-linejoin:round;stroke-miterlimit:2"><path d="M12 22a9.66 9.66 0 0 1-3.875-.788 10.12 10.12 0 0 1-3.187-2.149 10.138 10.138 0 0 1-2.15-3.188A9.676 9.676 0 0 1 2 12c0-1.383.271-2.683.813-3.9a10.116 10.116 0 0 1 2.2-3.175A10.5 10.5 0 0 1 8.25 2.787 9.978 9.978 0 0 1 12.2 2c1.333 0 2.592.229 3.775.688a9.925 9.925 0 0 1 3.113 1.899 9.114 9.114 0 0 1 2.125 2.875A8.278 8.278 0 0 1 22 11.05c0 1.917-.583 3.388-1.75 4.413C19.083 16.488 17.667 17 16 17h-1.85c-.15 0-.254.042-.312.125a.464.464 0 0 0-.088.275c0 .2.125.488.375.863s.375.804.375 1.287c0 .833-.229 1.45-.687 1.85-.459.4-1.063.6-1.813.6Zm-5.5-9c.433 0 .792-.142 1.075-.425.283-.283.425-.642.425-1.075 0-.433-.142-.792-.425-1.075C7.292 10.142 6.933 10 6.5 10c-.433 0-.792.142-1.075.425-.283.283-.425.642-.425 1.075 0 .433.142.792.425 1.075.283.283.642.425 1.075.425Zm3-4c.433 0 .792-.142 1.075-.425.283-.283.425-.642.425-1.075 0-.433-.142-.792-.425-1.075C10.292 6.142 9.933 6 9.5 6c-.433 0-.792.142-1.075.425C8.142 6.708 8 7.067 8 7.5c0 .433.142.792.425 1.075.283.283.642.425 1.075.425Zm5 0c.433 0 .792-.142 1.075-.425.283-.283.425-.642.425-1.075 0-.433-.142-.792-.425-1.075C15.292 6.142 14.933 6 14.5 6c-.433 0-.792.142-1.075.425-.283.283-.425.642-.425 1.075 0 .433.142.792.425 1.075.283.283.642.425 1.075.425Zm3 4c.433 0 .792-.142 1.075-.425.283-.283.425-.642.425-1.075 0-.433-.142-.792-.425-1.075-.283-.283-.642-.425-1.075-.425-.433 0-.792.142-1.075.425-.283.283-.425.642-.425 1.075 0 .433.142.792.425 1.075.283.283.642.425 1.075.425Z" style="fill:#fff;fill-rule:nonzero"/></svg>